<?xml version="1.0" encoding="utf-8"?>
<!-- Uploaded to: SVG Repo, www.svgrepo.com, Generator: SVG Repo Mixer Tools -->
<svg width="800px" height="800px" viewBox="0 0 1024 1024" class="icon"  version="1.1" xmlns="http://www.w3.org/2000/svg"><path d="M385.86 647.77C341 607 261.3 383.16 322.21 255.55S497.47 97.32 577.57 133.4 730.33 348.85 725 453.59s-69.16 192.08-131.3 201.47-207.84-7.29-207.84-7.29z" fill="#7FB870" /><path d="M372.65 299.23s-46.39 70.25 18.56 326.09L411.1 628s-50.38-242.61-38.45-328.77zM441.58 267.42s-41.09 111.35 17.23 357.9L478.7 628s-49.05-274.42-37.12-360.58zM513.16 262.12s-37.12 119.3 5.3 355.25l19.88 1.33s-10.6-251.87-25.18-356.58zM576.79 252.84s1.33 249.2-4 365.85l19.88 2.65s14.61-188.23-15.88-368.5zM633.79 278s87.49 141.83-1.47 340.67l-19.88 2.65S668.25 508.67 633.79 278z" fill="#458E6B" /><path d="M561.54 173.3l-14.91-79.53 39.77 37.78 35.79-67.6 6.96 72.57 56.67-11.93-63.63 67.6-60.65-18.89z" fill="#FFEB05" /><path d="M331.78 664h370.44v223.56a66.49 66.49 0 0 1-66.49 66.49H398.27a66.49 66.49 0 0 1-66.49-66.49V664z" fill="#F5CAC5" /><path d="M261.83 608.14l510.34 0 0 73.21-510.34 0 0-73.21Z" fill="#F5CAC5" /><path d="M735.57 681.34H298.43a36.71 36.71 0 0 1-36.6-36.6h510.34a36.71 36.71 0 0 1-36.6 36.6z" fill="#C7A19D" /><path d="M413.62 730.32c0.13 12.94-18.17 18.17-18.17 18.17s-18.17-5.1-18.17-18.17c0-10 10.46-14.38 18.17-3.4 5.88-11.76 18.07-6.63 18.17 3.4zM483.11 776.44c0.13 12.94-18.17 18.17-18.17 18.17s-18.17-5.1-18.17-18.17c0-10 10.46-14.38 18.17-3.4 5.88-11.76 18.06-6.63 18.17 3.4zM602.15 730.32c0.13 12.94-18.17 18.17-18.17 18.17s-18.17-5.1-18.17-18.17c0-10 10.46-14.38 18.17-3.4 5.88-11.76 18.02-6.63 18.17 3.4zM654.88 784.4c0.13 12.94-18.17 18.17-18.17 18.17s-18.17-5.1-18.17-18.17c0-10 10.46-14.38 18.17-3.4 5.88-11.77 18.06-6.64 18.17 3.4zM404.69 835.41c0.13 12.94-18.17 18.17-18.17 18.17s-18.17-5.1-18.17-18.17c0-10 10.46-14.38 18.17-3.4 5.88-11.76 18.06-6.63 18.17 3.4zM474.17 897.44c0.13 12.94-18.17 18.17-18.17 18.17s-18.17-5.1-18.17-18.17c0-10 10.46-14.38 18.17-3.4 5.89-11.76 18.07-6.63 18.17 3.4zM569.36 835.41c0.13 12.94-18.17 18.17-18.17 18.17S533 848.48 533 835.41c0-10 10.46-14.38 18.17-3.4 5.9-11.76 18.09-6.63 18.19 3.4zM653.9 897.44c0.13 12.94-18.17 18.17-18.17 18.17s-18.17-5.1-18.17-18.17c0-10 10.46-14.38 18.17-3.4 5.88-11.76 18.07-6.63 18.17 3.4z" fill="#3B5174" /></svg>